# xmcd
#
# Track frame offsets:
# 225
# 15322
# 35141
# 49646
# 64054
# 79116
# 96163
# 116239
# 133917
# 145498
#
# Disc length: 2132 seconds
#
#
# Revision: 0
# Processed by: cddbd v1.5.1PL0 Copyright (c) Steve Scherf et al.
# Submitted via: FreeRIP 2.941 
#
DISCID=8e08510a
DTITLE=Patrick Whelan - Old City Session
DYEAR=2002
DGENRE=Blues
TTITLE0=Lay Me Down
TTITLE1=Waiting For A Hurricane
TTITLE2=Until You Came Along
TTITLE3=Old City Session
TTITLE4=Soul on Fire
TTITLE5=Since My Baby Been Gone
TTITLE6=Stagolee
TTITLE7=Just Another Going Away Song
TTITLE8=Wished I Was In Heavon Sitting Down
TTITLE9=Where Time Goes
EXTD=as heard on\nBluesfestRadio.com
EXTT0=
EXTT1=
EXTT2=
EXTT3=
EXTT4=
EXTT5=
EXTT6=
EXTT7=
EXTT8=
EXTT9=
PLAYORDER=
